<svg width="40" height="40" viewBox="0 0 96 96" fill="none" xmlns="http://www.w3.org/2000/svg">
<circle cx="48" cy="48" r="47" fill="url(#paint0_radial_40_69)" stroke="#00FFD1" stroke-width="2"/>
<g filter="url(#filter0_d_40_69)">
<path d="M41.0078 20.8355C43.2427 20.2901 45.5856 20 47.9999 20C50.4142 20 52.7571 20.2901 54.9921 20.8355H41.0078Z" fill="#141418"/>
<path d="M44.8806 22.9621H35.1423C34.3824 23.3357 33.6427 23.7414 32.9254 24.1773H43.6927C44.1431 23.741 44.5412 23.3289 44.8806 22.9621Z" fill="#141418"/>
<path d="M29.8949 26.304H41.2432C40.3824 26.9681 39.4653 27.59 38.5081 28.1267H27.8481C28.4978 27.4875 29.1809 26.879 29.8949 26.304Z" fill="#141418"/>
<path d="M56.0813 26.304C56.9835 26.9586 57.9297 27.583 58.8878 28.1267H68.1518C67.5021 27.4875 66.8189 26.879 66.105 26.304H56.0813Z" fill="#141418"/>
<path d="M25.9039 30.2532H29.5539V36.9076H33.5833V37.6961H21.6026C22.6148 34.986 24.077 32.478 25.9039 30.2532Z" fill="#141418"/>
<path d="M63.0402 36.9076V37.6961H74.3973C73.3851 34.986 71.9229 32.478 70.096 30.2532H67.0697V36.9076H63.0402Z" fill="#141418"/>
<path d="M20.9132 39.8226H28.4013L28.3474 39.8267L28.9197 46.7306L31.9645 46.5031V46.7854L27.5391 47.9436V52.4299H20V46.5067C20.0067 44.1976 20.3236 41.9577 20.9132 39.8226Z" fill="#141418"/>
<path d="M69.0845 47.9228V52.4299H76V46.5819C76 44.2462 75.6827 41.9809 75.0867 39.8226H68.2222L68.276 39.8267L67.7037 46.7306L64.4897 46.4905V46.7692L69.0845 47.9228Z" fill="#141418"/>
<path d="M52.0287 22.9621C52.4309 23.3335 52.8899 23.7448 53.395 24.1773H63.0745C62.3571 23.7414 61.6175 23.3357 60.8576 22.9621H52.0287Z" fill="#141418"/>
<path fill-rule="evenodd" clip-rule="evenodd" d="M31.9075 33.9219C40.8035 33.9219 48.0254 24.3572 48.0254 24.3572C48.0254 24.3572 56.9901 33.9219 64.1433 33.9219V35.8334H60.1138V41.1644L47.9407 37.746L35.9369 41.1168V35.8334H31.9075V33.9219ZM48.0252 30.0954C48.0252 30.0954 46.2198 33.2836 43.9957 33.2836V33.9207L46.0107 33.9208V34.2394C47.1227 34.2394 48.0254 35.8335 48.0254 35.8335C48.0254 35.8335 49.146 34.2394 50.0402 34.2394V33.9208L52.0547 33.9207V33.2836C50.2664 33.2836 48.0252 30.0954 48.0252 30.0954Z" fill="#141418"/>
<path d="M31.0581 45.4675L34.3181 45.2239V50.1263L29.8927 51.2845V53.0477H31.3391C41.0212 49.8171 48.0254 41.5714 48.0254 41.5714C48.0254 41.5714 56.7199 49.8171 65.705 53.0477H66.158V51.2845L61.5633 50.1309V45.2112L64.9926 45.4675L65.1506 43.5607L61.1336 43.2605L61.1252 43.3612L47.9407 39.6589L34.9216 43.3148L34.9171 43.2605L30.9 43.5607L31.0581 45.4675Z" fill="#141418"/>
<path d="M48.0254 45.3969C48.0254 45.3969 37.1925 58.1497 23.8484 58.1497L24.2609 58.8951C25.2176 61.0213 26.4676 62.9324 27.9749 64.5469C27.0019 64.4779 26.5034 64.0955 25.8403 63.5838C24.9447 62.8926 23.8302 62.0325 21.7532 62.0325V65.8225C22.95 65.8225 23.4801 66.2316 24.2136 66.7978C25.1092 67.4891 26.2237 68.3492 28.3009 68.3492C30.3779 68.3492 31.4927 67.4889 32.3883 66.7977C33.1218 66.2317 33.652 65.8225 34.8487 65.8225C36.0454 65.8225 36.5756 66.2316 37.3091 66.7978C38.2048 67.4891 39.3193 68.3492 41.3965 68.3492C43.4731 68.3492 44.5884 67.4886 45.4839 66.7976C46.2173 66.2316 46.7474 65.8225 47.944 65.8225C49.1408 65.8225 49.6709 66.2316 50.4045 66.7978C51.3002 67.4891 52.4147 68.3492 54.4919 68.3492C56.569 68.3492 57.6839 67.4888 58.5795 66.7976C59.313 66.2316 59.8432 65.8225 61.0399 65.8225C62.2368 65.8225 62.767 66.2316 63.5007 66.7978C64.3963 67.4891 65.511 68.3492 67.5882 68.3492C69.6652 68.3492 70.7803 67.4888 71.676 66.7976C72.4095 66.2316 72.9397 65.8225 74.1365 65.8225V62.0325C72.0595 62.0325 70.9447 62.8927 70.049 63.5839C69.4434 64.0512 68.9755 64.4107 68.1581 64.5223C69.2008 63.3759 70.1256 62.0903 70.918 60.6985H70.9934L72.2022 58.1497C61.4724 58.1497 48.0254 45.3969 48.0254 45.3969Z" fill="#141418"/>
<path d="M53.0556 71.6712C53.9585 72.1856 54.6109 72.5571 56.084 72.5571C57.5565 72.5571 58.209 72.1857 59.1118 71.6717C60.214 71.0438 61.5868 70.2619 64.1433 70.2619V73.7048C62.6704 73.7048 62.0179 74.0764 61.1151 74.5905C60.0128 75.2184 58.6406 76 56.0841 76C53.5276 76 52.1558 75.2187 51.0535 74.5907C50.1505 74.0764 49.4981 73.7048 48.025 73.7048C46.5523 73.7048 45.8999 74.0764 44.9972 74.5905C43.895 75.2184 42.5228 76 39.9664 76C37.4099 76 36.0381 75.2187 34.9358 74.5907C34.0329 74.0764 33.3805 73.7048 31.9075 73.7048V70.2619C34.464 70.2619 35.8358 71.0432 36.9381 71.6712C37.841 72.1856 38.4934 72.5571 39.9664 72.5571C41.4391 72.5571 42.0916 72.1855 42.9942 71.6714C44.0964 71.0436 45.4686 70.2619 48.025 70.2619C50.5815 70.2619 51.9533 71.0432 53.0556 71.6712Z" fill="#141418"/>
</g>
<defs>
<filter id="filter0_d_40_69" x="12" y="16" width="72" height="72" filterUnits="userSpaceOnUse" color-interpolation-filters="sRGB">
<feFlood flood-opacity="0" result="BackgroundImageFix"/>
<feColorMatrix in="SourceAlpha" type="matrix" values="0 0 0 0 0 0 0 0 0 0 0 0 0 0 0 0 0 0 127 0" result="hardAlpha"/>
<feOffset dy="4"/>
<feGaussianBlur stdDeviation="4"/>
<feComposite in2="hardAlpha" operator="out"/>
<feColorMatrix type="matrix" values="0 0 0 0 0 0 0 0 0 0 0 0 0 0 0 0 0 0 0.1 0"/>
<feBlend mode="normal" in2="BackgroundImageFix" result="effect1_dropShadow_40_69"/>
<feBlend mode="normal" in="SourceGraphic" in2="effect1_dropShadow_40_69" result="shape"/>
</filter>
<radialGradient id="paint0_radial_40_69" cx="0" cy="0" r="1" gradientUnits="userSpaceOnUse" gradientTransform="translate(48 48) scale(48 150.114)">
<stop stop-color="#00FFD1"/>
<stop offset="1" stop-color="#00CCA7"/>
</radialGradient>
</defs>
</svg>
