<svg width="141" height="36" viewBox="0 0 141 36" fill="none" xmlns="http://www.w3.org/2000/svg">
<path d="M133.615 33.0001C132.411 33.0001 131.247 32.8324 130.122 32.497C128.997 32.1812 127.971 31.6189 127.044 30.8099L128.257 28.3828C128.968 28.955 129.747 29.4089 130.596 29.7443C131.464 30.0798 132.381 30.2475 133.348 30.2475C134.947 30.2475 136.101 29.8134 136.811 28.9452C137.522 28.0769 137.877 26.9423 137.877 25.5414V24.0318C137.522 24.5251 137.078 24.9395 136.545 25.275C136.032 25.5907 135.46 25.8176 134.828 25.9557C134.197 26.1136 133.555 26.1925 132.904 26.1925C131.385 26.1925 130.171 25.8867 129.264 25.275C128.376 24.6435 127.734 23.7852 127.34 22.6999C126.965 21.6146 126.777 20.3616 126.777 18.9409V10.3574H129.856V18.201C129.856 18.8324 129.895 19.4638 129.974 20.0953C130.053 20.7267 130.221 21.2989 130.477 21.812C130.734 22.3053 131.109 22.7098 131.602 23.0255C132.095 23.3215 132.766 23.4695 133.615 23.4695C134.68 23.4695 135.519 23.213 136.13 22.6999C136.742 22.1671 137.176 21.4765 137.433 20.628C137.689 19.7598 137.818 18.8225 137.818 17.8162V10.3574H140.866V25.2158C140.866 26.4392 140.718 27.5343 140.422 28.5012C140.146 29.4681 139.702 30.287 139.09 30.9578C138.498 31.6287 137.749 32.1319 136.841 32.4674C135.953 32.8225 134.877 33.0001 133.615 33.0001Z" fill="#00FFD1"/>
<path d="M115.187 26.1331C114.476 26.1331 113.786 26.0443 113.115 25.8667C112.464 25.6694 111.882 25.3833 111.368 25.0084C110.855 24.6137 110.441 24.1303 110.125 23.5581C109.829 22.9661 109.681 22.2755 109.681 21.4862C109.681 20.539 109.859 19.7596 110.214 19.1479C110.589 18.5165 111.082 18.033 111.694 17.6976C112.306 17.3424 113.006 17.0958 113.796 16.9576C114.605 16.7998 115.443 16.7208 116.311 16.7208H120.13C120.13 15.9513 120.011 15.2804 119.774 14.7082C119.538 14.1162 119.163 13.6624 118.65 13.3466C118.156 13.0112 117.495 12.8435 116.667 12.8435C116.173 12.8435 115.7 12.9027 115.246 13.0211C114.812 13.1197 114.437 13.2874 114.121 13.5242C113.805 13.761 113.588 14.0767 113.47 14.4714H110.273C110.392 13.7216 110.658 13.0803 111.073 12.5475C111.487 11.995 112 11.5411 112.612 11.186C113.223 10.8308 113.874 10.5743 114.565 10.4164C115.275 10.2388 115.996 10.15 116.726 10.15C118.975 10.15 120.593 10.8111 121.58 12.1331C122.586 13.4354 123.089 15.2311 123.089 17.52V25.9555H120.455L120.337 23.9724C119.883 24.5841 119.34 25.0478 118.709 25.3636C118.097 25.6793 117.485 25.8865 116.874 25.9851C116.262 26.0838 115.7 26.1331 115.187 26.1331ZM115.66 23.5581C116.548 23.5581 117.328 23.4101 117.999 23.1141C118.669 22.7984 119.192 22.3544 119.567 21.7822C119.942 21.1902 120.13 20.4996 120.13 19.7103V19.0591H117.347C116.775 19.0591 116.213 19.0788 115.66 19.1183C115.127 19.138 114.634 19.217 114.18 19.3551C113.746 19.4735 113.391 19.6807 113.115 19.9767C112.858 20.2726 112.73 20.6969 112.73 21.2494C112.73 21.7822 112.868 22.2163 113.144 22.5517C113.421 22.8872 113.786 23.1437 114.24 23.3213C114.693 23.4791 115.167 23.5581 115.66 23.5581Z" fill="#00FFD1"/>
<path d="M92.1199 31.6384V10.3572H95.0205L95.1685 12.5771C95.721 11.7681 96.4412 11.1662 97.3292 10.7716C98.2171 10.3572 99.184 10.15 100.23 10.15C101.789 10.15 103.071 10.5052 104.078 11.2156C105.084 11.9062 105.834 12.8632 106.327 14.0866C106.82 15.2903 107.067 16.6419 107.067 18.1416C107.067 19.6807 106.811 21.0521 106.297 22.2557C105.804 23.4594 105.035 24.4065 103.989 25.0972C102.963 25.7878 101.66 26.1331 100.082 26.1331C99.332 26.1331 98.6414 26.0542 98.0099 25.8963C97.3982 25.7385 96.8556 25.5115 96.382 25.2156C95.9282 24.8998 95.5237 24.5348 95.1685 24.1204V31.6384H92.1199ZM99.697 23.4101C100.763 23.4101 101.611 23.1733 102.242 22.6997C102.874 22.2064 103.328 21.5651 103.604 20.7758C103.88 19.9865 104.018 19.1282 104.018 18.2008C104.018 17.2339 103.87 16.3558 103.574 15.5665C103.298 14.7575 102.834 14.1162 102.183 13.6426C101.552 13.1493 100.703 12.9027 99.6378 12.9027C98.671 12.9027 97.8521 13.1493 97.1812 13.6426C96.5103 14.1162 95.9973 14.7575 95.6421 15.5665C95.3066 16.3755 95.1389 17.2536 95.1389 18.2008C95.1389 19.1676 95.2968 20.0556 95.6125 20.8646C95.9479 21.6539 96.4511 22.2755 97.122 22.7293C97.8126 23.1831 98.671 23.4101 99.697 23.4101Z" fill="#00FFD1"/>
<path d="M75.35 25.9556V5H79.4937V16.3362H81.536L85.3542 10.3573H90.0011L85.0286 17.7865L90.4155 25.9556H85.6206L81.7136 20.0359H79.4937V25.9556H75.35Z" fill="white"/>
<path d="M63.7302 25.9556V10.3573H67.4596L67.726 12.222C68.1206 11.6301 68.5646 11.1861 69.0579 10.8901C69.5512 10.5744 70.0643 10.3672 70.597 10.2685C71.1298 10.1501 71.6724 10.0909 72.2249 10.0909C72.4815 10.0909 72.7182 10.1008 72.9353 10.1205C73.1524 10.1205 73.3102 10.1205 73.4089 10.1205V14.1163H72.4321C71.5047 14.1163 70.6957 14.2742 70.0051 14.5899C69.3144 14.9056 68.7817 15.3989 68.4068 16.0698C68.0516 16.7407 67.874 17.599 67.874 18.6449V25.9556H63.7302Z" fill="white"/>
<path d="M51.8504 26.1629C51.14 26.1629 50.4494 26.0741 49.7785 25.8965C49.1273 25.6992 48.5452 25.4032 48.0322 25.0086C47.5192 24.6139 47.1147 24.1206 46.8187 23.5286C46.5227 22.9367 46.3747 22.246 46.3747 21.4568C46.3747 20.3912 46.5917 19.5427 47.0259 18.9113C47.46 18.2601 48.0421 17.7668 48.7722 17.4314C49.5022 17.0959 50.3409 16.869 51.288 16.7506C52.2549 16.6322 53.2514 16.573 54.2774 16.573H56.5269C56.5269 16.0008 56.4184 15.4976 56.2013 15.0635C56.004 14.6097 55.6982 14.2644 55.2838 14.0276C54.8694 13.7711 54.3366 13.6428 53.6855 13.6428C53.2711 13.6428 52.8666 13.702 52.4719 13.8204C52.097 13.9191 51.7813 14.067 51.5248 14.2644C51.2683 14.4617 51.1006 14.7182 51.0216 15.0339H46.8187C46.9371 14.1657 47.2133 13.4257 47.6474 12.8141C48.0815 12.1826 48.6242 11.6696 49.2753 11.2749C49.9265 10.8803 50.6369 10.5942 51.4064 10.4166C52.1957 10.2193 53.0047 10.1206 53.8335 10.1206C56.1027 10.1206 57.7799 10.7718 58.8652 12.0741C59.9504 13.3567 60.4931 15.1819 60.4931 17.5498V25.9557H56.7637L56.7045 23.943C56.2112 24.6336 55.6488 25.1368 55.0174 25.4525C54.4057 25.7682 53.8137 25.9656 53.2415 26.0445C52.6693 26.1234 52.2056 26.1629 51.8504 26.1629ZM52.7975 22.8775C53.4882 22.8775 54.1196 22.7394 54.6918 22.4631C55.2641 22.1868 55.7179 21.8119 56.0533 21.3384C56.3888 20.8648 56.5565 20.332 56.5565 19.7401V19.3553H53.7151C53.3007 19.3553 52.8962 19.375 52.5015 19.4145C52.1266 19.4539 51.7813 19.5329 51.4656 19.6513C51.1696 19.7499 50.9328 19.9176 50.7552 20.1544C50.5777 20.3912 50.4889 20.7069 50.4889 21.1016C50.4889 21.4962 50.5875 21.8317 50.7848 22.1079C51.0019 22.3644 51.288 22.5618 51.6432 22.6999C51.9984 22.8183 52.3832 22.8775 52.7975 22.8775Z" fill="white"/>
<g filter="url(#filter0_i_40_52)">
<rect width="36" height="36" rx="9" fill="url(#paint0_linear_40_52)"/>
</g>
<rect x="0.5" y="0.5" width="35" height="35" rx="8.5" stroke="white" stroke-opacity="0.3"/>
<path d="M14.7536 5.38792C15.7913 5.13468 16.879 5 18 5C19.1209 5 20.2086 5.13468 21.2463 5.38792H14.7536Z" fill="#141418"/>
<path d="M16.5517 6.37528H12.0304C11.6775 6.54874 11.3341 6.73709 11.0011 6.93947H16.0002C16.2093 6.73691 16.3941 6.54557 16.5517 6.37528Z" fill="#141418"/>
<path d="M9.59405 7.92684H14.8629C14.4633 8.23517 14.0375 8.52392 13.593 8.77312H8.64374C8.9454 8.47632 9.26258 8.19383 9.59405 7.92684Z" fill="#141418"/>
<path d="M21.752 7.92684C22.1709 8.23078 22.6102 8.52067 23.055 8.77312H27.3562C27.0545 8.47632 26.7374 8.19383 26.4059 7.92684H21.752Z" fill="#141418"/>
<path d="M7.74108 9.7604H9.43572V12.85H11.3065V13.216H5.74404C6.21401 11.9578 6.89289 10.7934 7.74108 9.7604Z" fill="#141418"/>
<path d="M24.983 12.85V13.216H30.2559C29.7859 11.9578 29.1071 10.7934 28.2589 9.7604H26.8538V12.85H24.983Z" fill="#141418"/>
<path d="M5.42396 14.2034H8.90058L8.87558 14.2052L9.14131 17.4106L10.5549 17.305V17.4361L8.5003 17.9738V20.0567H5V17.3067C5.00313 16.2346 5.15025 15.1947 5.42396 14.2034Z" fill="#141418"/>
<path d="M27.7892 17.9642V20.0567H31V17.3416C31 16.2572 30.8527 15.2054 30.576 14.2034H27.3889L27.4139 14.2052L27.1481 17.4106L25.6559 17.2991V17.4285L27.7892 17.9642Z" fill="#141418"/>
<path d="M19.8705 6.37528C20.0572 6.54769 20.2703 6.73868 20.5048 6.93947H24.9989C24.6658 6.73709 24.3224 6.54874 23.9696 6.37528H19.8705Z" fill="#141418"/>
<path fill-rule="evenodd" clip-rule="evenodd" d="M10.5285 11.4637C14.6588 11.4637 18.0118 7.023 18.0118 7.023C18.0118 7.023 22.174 11.4637 25.4951 11.4637V12.3512H23.6243V14.8263L17.9725 13.2392L12.3993 14.8042V12.3512H10.5285V11.4637ZM18.0117 9.68713C18.0117 9.68713 17.1735 11.1674 16.1409 11.1674V11.4632L17.0764 11.4632V11.6111C17.5927 11.6111 18.0118 12.3513 18.0118 12.3513C18.0118 12.3513 18.5321 11.6111 18.9472 11.6111V11.4632L19.8825 11.4632V11.1674C19.0523 11.1674 18.0117 9.68713 18.0117 9.68713Z" fill="#141418"/>
<path d="M10.1341 16.8242L11.6477 16.7111V18.9872L9.59304 19.525V20.3436H10.2646C14.7598 18.8436 18.0118 15.0153 18.0118 15.0153C18.0118 15.0153 22.0485 18.8436 26.2202 20.3436H26.4305V19.525L24.2972 18.9893V16.7052L25.8894 16.8242L25.9628 15.9389L24.0977 15.7995L24.0939 15.8463L17.9725 14.1273L11.9279 15.8247L11.9258 15.7995L10.0607 15.9389L10.1341 16.8242Z" fill="#141418"/>
<path d="M18.0118 16.7914C18.0118 16.7914 12.9823 22.7124 6.78678 22.7124L6.97828 23.0585C7.42246 24.0456 8.00283 24.9329 8.70263 25.6825C8.25089 25.6505 8.01945 25.4729 7.71159 25.2353C7.29577 24.9144 6.77829 24.5151 5.81401 24.5151V26.2747C6.36963 26.2747 6.61574 26.4647 6.95633 26.7276C7.37211 27.0485 7.88959 27.4479 8.85397 27.4479C9.8183 27.4479 10.3359 27.0484 10.7517 26.7275C11.0923 26.4647 11.3384 26.2747 11.894 26.2747C12.4496 26.2747 12.6958 26.4647 13.0364 26.7276C13.4522 27.0485 13.9697 27.4479 14.9341 27.4479C15.8982 27.4479 16.4161 27.0483 16.8318 26.7275C17.1723 26.4647 17.4184 26.2747 17.974 26.2747C18.5297 26.2747 18.7758 26.4647 19.1164 26.7276C19.5322 27.0485 20.0497 27.4479 21.0141 27.4479C21.9785 27.4479 22.4961 27.0484 22.9119 26.7275C23.2525 26.4647 23.4986 26.2747 24.0542 26.2747C24.61 26.2747 24.8561 26.4647 25.1967 26.7276C25.6126 27.0485 26.1301 27.4479 27.0945 27.4479C28.0588 27.4479 28.5766 27.0484 28.9924 26.7275C29.333 26.4647 29.5792 26.2747 30.1348 26.2747V24.5151C29.1705 24.5151 28.6529 24.9145 28.237 25.2354C27.9559 25.4523 27.7386 25.6193 27.3591 25.6711C27.8432 25.1388 28.2726 24.5419 28.6405 23.8957H28.6755L29.2367 22.7124C24.255 22.7124 18.0118 16.7914 18.0118 16.7914Z" fill="#141418"/>
<path d="M20.3473 28.9902C20.7665 29.229 21.0694 29.4015 21.7533 29.4015C22.437 29.4015 22.7399 29.2291 23.159 28.9904C23.6708 28.6989 24.3082 28.3359 25.4951 28.3359V29.9344C24.8113 29.9344 24.5083 30.1069 24.0891 30.3456C23.5774 30.6371 22.9403 31 21.7533 31C20.5664 31 19.9295 30.6373 19.4177 30.3457C18.9984 30.1069 18.6955 29.9344 18.0116 29.9344C17.3279 29.9344 17.0249 30.1069 16.6058 30.3456C16.0941 30.6371 15.457 31 14.2701 31C13.0832 31 12.4463 30.6373 11.9345 30.3457C11.5153 30.1069 11.2124 29.9344 10.5285 29.9344V28.3359C11.7154 28.3359 12.3523 28.6986 12.8641 28.9902C13.2833 29.229 13.5862 29.4015 14.2701 29.4015C14.9539 29.4015 15.2568 29.229 15.6759 28.9903C16.1876 28.6988 16.8247 28.3359 18.0116 28.3359C19.1986 28.3359 19.8355 28.6986 20.3473 28.9902Z" fill="#141418"/>
<defs>
<filter id="filter0_i_40_52" x="0" y="0" width="36" height="36" filterUnits="userSpaceOnUse" color-interpolation-filters="sRGB">
<feFlood flood-opacity="0" result="BackgroundImageFix"/>
<feBlend mode="normal" in="SourceGraphic" in2="BackgroundImageFix" result="shape"/>
<feColorMatrix in="SourceAlpha" type="matrix" values="0 0 0 0 0 0 0 0 0 0 0 0 0 0 0 0 0 0 127 0" result="hardAlpha"/>
<feOffset/>
<feGaussianBlur stdDeviation="3"/>
<feComposite in2="hardAlpha" operator="arithmetic" k2="-1" k3="1"/>
<feColorMatrix type="matrix" values="0 0 0 0 0 0 0 0 0 0 0 0 0 0 0 0 0 0 0.2 0"/>
<feBlend mode="normal" in2="shape" result="effect1_innerShadow_40_52"/>
</filter>
<linearGradient id="paint0_linear_40_52" x1="18" y1="0" x2="18" y2="36" gradientUnits="userSpaceOnUse">
<stop stop-color="#0DF5E3"/>
<stop offset="1" stop-color="#01CEA9"/>
</linearGradient>
</defs>
</svg>
